<?xml version="1.0" standalone="no"?>
<!DOCTYPE svg PUBLIC "-//W3C//DTD SVG 20010904//EN"
 "http://www.w3.org/TR/2001/REC-SVG-20010904/DTD/svg10.dtd">
<svg version="1.0" xmlns="http://www.w3.org/2000/svg"
 width="2500.000000pt" height="2500.000000pt" viewBox="0 0 2500.000000 2500.000000"
 preserveAspectRatio="xMidYMid meet">
<metadata>
Created by potrace 1.11, written by Peter Selinger 2001-2013
</metadata>
<g transform="translate(0.000000,2500.000000) scale(0.100000,-0.100000)"
fill="#000000" stroke="none">
<path d="M11920 23690 c-1379 -74 -2647 -366 -3885 -897 -257 -110 -768 -361
-1005 -493 -1289 -721 -2413 -1672 -3330 -2820 -1849 -2315 -2699 -5266 -2369
-8230 260 -2342 1254 -4536 2849 -6290 169 -186 594 -608 775 -771 564 -506
1125 -921 1750 -1296 2406 -1444 5266 -1927 8037 -1357 1768 363 3455 1174
4848 2329 523 434 1054 963 1485 1480 993 1192 1732 2590 2156 4080 399 1399
520 2874 358 4335 -383 3457 -2384 6564 -5384 8357 -1521 909 -3169 1426
-4975 1559 -253 18 -1060 27 -1310 14z m-451 -8356 l1044 -1695 36 58 c21 32
491 795 1045 1696 l1009 1637 1278 0 1279 0 0 -4375 0 -4375 -1205 0 -1205 0
-2 2511 -3 2510 -1115 -1708 c-948 -1452 -1119 -1708 -1140 -1711 -23 -2 -121
145 -1135 1696 l-1110 1698 -3 -2498 -2 -2498 -1185 0 -1185 0 0 4375 0 4375
1278 0 1277 0 1044 -1696z"/>
</g>
</svg>
